<svg width="157" height="43" viewBox="0 0 157 43" fill="none" xmlns="http://www.w3.org/2000/svg">
<path d="M32.4978 23.6082H8.43921V30.0032H32.4978V23.6082Z" fill="#7371FC"/>
<path d="M8.43921 12.2201H32.4978V11.6476C32.4978 8.23478 29.732 5.46893 26.3192 5.46893H8.43921V12.2201Z" fill="#7371FC"/>
<path d="M32.4978 14.6997H8.43921V21.1286H32.4978V14.6997Z" fill="#7371FC"/>
<path d="M5.95957 32.4828V23.6082H0.5V31.2858C0.5 34.6986 3.26585 37.4644 6.67864 37.4644H26.3191C29.3216 37.4644 31.8238 35.3207 32.3828 32.4805H5.95957V32.4828Z" fill="#7371FC"/>
<path d="M5.95957 12.2201V5.50952C2.88715 5.86568 0.5 8.47599 0.5 11.6453V12.2179H5.95957V12.2201Z" fill="#7371FC"/>
<path d="M5.95957 14.6997H0.5V21.1286H5.95957V14.6997Z" fill="#7371FC"/>
<path d="M50.0773 30.4947V15.5427H40.8933V10.8947H66.0373V15.5427H56.8253V30.4947H50.0773ZM87.4838 26.6867H88.2678V30.6347H83.3678C82.0238 30.6347 81.2678 29.9627 81.0438 28.6467C80.5958 29.1787 79.8398 29.7107 78.7478 30.1867C77.6558 30.6627 76.1718 30.8867 74.2958 30.8867H73.9598C71.6638 30.8867 69.9558 30.4387 68.8358 29.5427C67.7158 28.6467 67.1838 27.5267 67.1838 26.1547V25.9587C67.1838 24.6427 67.6318 23.6347 68.5838 22.9347C69.5358 22.2627 71.1038 21.8147 73.2878 21.6187L79.9798 21.0027C80.5678 20.9187 80.8758 20.6667 80.8758 20.2467C80.8758 19.9947 80.8198 19.8267 80.7078 19.6587C80.5958 19.5187 80.2318 19.3787 79.6438 19.2667C79.0558 19.1267 78.1878 19.0427 77.0958 19.0427L67.1838 19.0707V15.7107H77.7118C79.3358 15.7107 80.7357 15.7947 81.8838 15.9907C83.0598 16.1867 83.9278 16.4387 84.5438 16.7187C85.1598 17.0267 85.6358 17.3907 85.9718 17.8387C86.3358 18.3147 86.5318 18.7067 86.6158 19.0707C86.6718 19.4347 86.7278 19.8827 86.7278 20.3867V25.9587C86.7278 26.4347 86.9798 26.6867 87.4838 26.6867ZM80.8758 24.1667V23.7187L75.1078 24.6147C74.2958 24.7267 73.7357 24.8947 73.3998 25.0907C73.0918 25.2867 72.9238 25.5667 72.9238 25.9587V25.9867C72.9238 26.4347 73.1198 26.8267 73.5397 27.1627C73.9598 27.4707 74.6318 27.6387 75.5838 27.6387C77.1238 27.6387 78.4118 27.2747 79.3918 26.5747C80.3998 25.8747 80.8758 25.0907 80.8758 24.1667ZM99.5157 30.8027C92.9077 30.8027 89.6317 29.1507 89.6317 25.7907V25.6227H96.2117C96.2117 26.9107 97.5277 27.5547 100.16 27.5547H100.216C101.308 27.5547 102.176 27.4707 102.792 27.3307C103.408 27.1907 103.8 27.0507 103.968 26.8827C104.108 26.6867 104.192 26.4907 104.192 26.2107V26.1547C104.192 25.7627 103.968 25.4547 103.548 25.2587C103.1 25.0627 102.204 24.9507 100.804 24.9227L98.0597 24.8667C96.4637 24.8387 95.0917 24.6987 93.9437 24.4187C92.8237 24.1667 91.9557 23.8027 91.3677 23.3827C90.8077 22.9347 90.3877 22.4867 90.1357 22.0107C89.8837 21.5347 89.7717 21.0307 89.7717 20.4707V20.3027C89.7717 19.8267 89.8277 19.3787 89.9397 18.9867C90.0797 18.6227 90.3317 18.2027 90.7517 17.8107C91.1717 17.4187 91.7037 17.0827 92.4037 16.8027C93.0757 16.5507 94.0277 16.3267 95.2317 16.1587C96.4357 15.9907 97.8637 15.9067 99.4877 15.9067H100.636C107.076 15.9067 110.296 17.3627 110.296 20.3307V20.5267H103.772C103.744 20.3307 103.688 20.1907 103.604 20.0507C103.548 19.9387 103.38 19.7707 103.156 19.6027C102.932 19.4347 102.54 19.3227 102.008 19.2107C101.448 19.1267 100.776 19.0707 99.9917 19.0707H99.9637C98.5077 19.0707 97.5277 19.1547 97.0237 19.3227C96.5477 19.4627 96.2957 19.7427 96.2957 20.1347V20.1627C96.2957 20.5267 96.5197 20.8067 96.9677 20.9747C97.4437 21.1707 98.2837 21.2827 99.5157 21.3107L102.26 21.3667C104.584 21.3947 106.376 21.5907 107.636 21.9547C108.924 22.3187 109.792 22.7947 110.212 23.3827C110.632 23.9707 110.856 24.7827 110.856 25.7907V25.9587C110.856 26.6587 110.716 27.3027 110.436 27.8347C110.156 28.3667 109.68 28.8707 108.98 29.3467C108.28 29.8227 107.244 30.1867 105.844 30.4387C104.444 30.6907 102.736 30.8027 100.692 30.8027H99.5157ZM113.08 30.4107V10.8667H119.436V21.9267L125.68 16.2707H132.764L125.484 22.6547L133.632 30.4107H126.156L119.436 23.9147V30.4107H113.08ZM149.962 16.6907H156.234L148.338 32.7067C147.582 34.1907 146.798 35.2827 145.986 35.9547C145.174 36.6267 144.082 36.9347 142.794 36.9347H133.694V32.4827H140.862C141.338 32.4827 141.59 32.3147 141.59 32.0067C141.59 31.8387 141.338 31.3067 140.89 30.4107L133.694 16.6907H140.414L145.258 26.8547L149.962 16.6907Z" fill="#22183B"/>
</svg>
